<svg xmlns="http://www.w3.org/2000/svg" width="480" height="280" viewBox="0 0 480 280" role="img" aria-labelledby="title desc">
  <title id="title">Leon5428/PQSecure repository</title>
  <desc id="desc">0 stars, 0 forks, 3 commits on the default branch main. Snapshot refreshed 2026-10-02.</desc>
  <rect x="1" y="1" width="478" height="278" rx="10" fill="#0d1117" stroke="#30363d"/>
  <g font-family="Segoe UI, Microsoft YaHei, Arial, sans-serif">
    <path d="M27 20h13v16H27z M31 20v16 M34 24h3" fill="none" stroke="#8b949e" stroke-width="1.5"/>
    <text x="49" y="33" font-size="13" fill="#8b949e">Leon5428</text>
    <rect x="392" y="18" width="60" height="23" rx="11" fill="none" stroke="#30363d"/>
    <text x="422" y="34" text-anchor="middle" font-size="11" fill="#8b949e">Public</text>
    <text x="27" y="69" font-size="25" font-weight="600" fill="#58a6ff">PQSecure</text>
    <text x="27" y="100" font-size="14" fill="#b1bac4">面向 ARM64 边缘设备的实验性后量子安全通信与性能评测平台</text>
    <text x="27" y="123" font-size="14" fill="#b1bac4"></text>
    <path d="M27 143h426" stroke="#21262d"/>
    <path d="M169 161v46 M311 161v46" stroke="#21262d"/>
    <text x="27" y="182" font-size="27" font-weight="600" fill="#e3b341">0</text>
    <text x="27" y="204" font-size="12" fill="#8b949e">Stars</text>
    <text x="191" y="182" font-size="27" font-weight="600" fill="#bc8cff">0</text>
    <text x="191" y="204" font-size="12" fill="#8b949e">Forks</text>
    <text x="333" y="182" font-size="27" font-weight="600" fill="#7ee787">3</text>
    <text x="333" y="204" font-size="12" fill="#8b949e">Commits</text>
    <path d="M27 225h426" stroke="#21262d"/>
    <circle cx="32" cy="250" r="4" fill="#79c0ff"/>
    <text x="45" y="254" font-size="12" fill="#b1bac4">Not detected</text>
    <text x="453" y="254" text-anchor="end" font-size="11" fill="#8b949e">main · 2026-10-02</text>
  </g>
</svg>
