<svg xmlns="http://www.w3.org/2000/svg" width="900" height="126" viewBox="0 0 900 126" role="img" aria-labelledby="title">
  <title id="title">Tools I use and learn: LaTeX, Python, Git, Linux; TeXstudio, VS Code, GitHub, Ubuntu</title>
  <rect x="1" y="1" width="898" height="124" rx="12" fill="#0d1117" stroke="#30363d"/>
  <g font-family="Consolas, monospace" font-size="16" text-anchor="middle">
    <rect x="24" y="20" width="195" height="36" rx="5" fill="#174c47"/><text x="121" y="44" fill="#8ce0cb">∑  LaTeX</text>
    <rect x="243" y="20" width="195" height="36" rx="5" fill="#193d62"/><text x="340" y="44" fill="#a5d6ff">&gt;_ Python</text>
    <rect x="462" y="20" width="195" height="36" rx="5" fill="#562d38"/><text x="559" y="44" fill="#ffa8b0">⑂  Git</text>
    <rect x="681" y="20" width="195" height="36" rx="5" fill="#4a4022"/><text x="778" y="44" fill="#f2d479">$  Linux</text>
    <rect x="24" y="70" width="195" height="36" rx="5" fill="#21432c"/><text x="121" y="94" fill="#9be9a8">∑  TeXstudio</text>
    <rect x="243" y="70" width="195" height="36" rx="5" fill="#243760"/><text x="340" y="94" fill="#a5bfff">&lt;/&gt; VS Code</text>
    <rect x="462" y="70" width="195" height="36" rx="5" fill="#30363d"/><text x="559" y="94" fill="#e6edf3">@  GitHub</text>
    <rect x="681" y="70" width="195" height="36" rx="5" fill="#593329"/><text x="778" y="94" fill="#ffba98">◉  Ubuntu</text>
  </g>
</svg>
